<svg preserveAspectRatio="xMidYMid meet" data-bbox="25.9 8.4 289 72.9" viewBox="25.9 8.4 289 72.9" xmlns="http://www.w3.org/2000/svg" data-type="color" role="presentation" aria-hidden="true" aria-label="">
    <g>
        <path d="M284 42.5c0 3.8.9 6.7 2.6 8.8 1.7 2.1 4.2 3.1 7.4 3.1 3.1 0 5.6-1 7.3-3.1 1.8-2.1 2.7-5 2.7-8.8 0-3.7-.9-6.7-2.6-8.8-1.8-2.1-4.2-3.1-7.4-3.1-3.1 0-5.6 1-7.3 3.1-1.8 2.2-2.7 5.1-2.7 8.8m30.9 0c0 6.2-1.9 11.1-5.7 14.8-3.8 3.7-8.8 5.5-15.2 5.5-6.4 0-11.5-1.8-15.3-5.6-3.8-3.7-5.7-8.7-5.7-14.8 0-6.2 1.9-11.2 5.7-14.9 3.8-3.7 8.9-5.6 15.3-5.6 6.3 0 11.4 1.9 15.2 5.6 3.8 3.9 5.7 8.8 5.7 15z" fill-rule="evenodd" clip-rule="evenodd" fill="#104766" data-color="1"></path>
        <path d="M248.1 22.7V8.4h10.4v38.1c0 2.9.5 5 1.5 6.1 1 1.1 2.7 1.7 5.2 1.7h4.3v7.9H260c-3.8 0-6.8-1.1-8.8-3.2-2-2.1-3.1-5.2-3.1-9.2V22.7z" fill-rule="evenodd" clip-rule="evenodd" fill="#104766" data-color="1"></path>
        <path d="M226.7 53.8h11.1v8.5h-14.2c-3.6 0-6.5-.4-8.8-1.1-2.3-.7-4.3-1.9-6-3.6-1.8-1.8-3.3-4-4.3-6.6-1-2.6-1.5-5.3-1.5-8.3 0-3 .5-5.9 1.5-8.5 1-2.6 2.5-4.9 4.3-6.6 1.7-1.7 3.8-2.9 6.1-3.6 2.3-.7 5.2-1.1 8.8-1.1h46v8.5h-42.9c-4.9 0-8.3.8-10.1 2.5-1.9 1.7-2.8 4.6-2.8 8.8 0 2.4.4 4.4 1.1 6 .7 1.6 1.9 2.9 3.5 3.8.8.5 1.7.8 2.7 1 1 .2 2.8.3 5.5.3" fill-rule="evenodd" clip-rule="evenodd" fill="#104766" data-color="1"></path>
        <path d="M183.2 62.3c-6.5 0-11.5-1.7-14.8-5-3.3-3.3-5-8.2-5-14.7s1.7-11.4 5-14.8c3.4-3.3 8.3-5 14.8-5h15.2V31h-13.8c-3.8 0-6.3.5-7.6 1.6-1.3 1.1-2 3-2.1 5.8h23.5v8.2h-23.5c.1 2.8.7 4.8 2 5.8 1.2 1 3.8 1.5 7.7 1.5h13.9v8.2h-15.3z" fill-rule="evenodd" clip-rule="evenodd" fill="#104766" data-color="1"></path>
        <path d="M130.3 31.3v22.5h6.4c4.2 0 7.2-.9 9-2.7 1.8-1.8 2.6-4.7 2.6-8.9 0-4-.8-6.8-2.4-8.5-1.6-1.6-4.4-2.5-8.4-2.5h-7.2zm-10.4-8.6H140c6.1 0 10.8 1.8 14.2 5.3 3.4 3.6 5.1 8.5 5.1 14.9 0 2.6-.3 5-1.1 7.2-.7 2.2-1.8 4.2-3.2 6-1.7 2.2-3.8 3.7-6.1 4.7-2.4.9-5.6 1.4-9.5 1.4h-9v14.3H120V22.7z" fill-rule="evenodd" clip-rule="evenodd" fill="#104766" data-color="1"></path>
        <path d="M74.7 54h22c1.9 0 3.4-.3 4.3-.9.9-.6 1.3-1.6 1.3-2.9 0-1.3-.5-2.3-1.3-2.9-.9-.6-2.3-.9-4.2-.9h-9c-5.3 0-8.9-.8-10.8-2.4-2-1.8-3-4.7-3-8.9s1.1-7.4 3.4-9.4 5.8-3 10.5-3h42.4V31H92c-3 0-4.9.3-5.9.8-.9.5-1.3 1.4-1.3 2.8 0 1.2.4 2.1 1.2 2.7.8.6 2 .9 3.8.9h9.4c4.3 0 7.6 1 9.9 3 2.3 2 3.4 4.9 3.4 8.7 0 3.7-1 6.6-3 8.9-2 2.3-4.6 3.4-7.8 3.4h-27V54z" fill-rule="evenodd" clip-rule="evenodd" fill="#104766" data-color="1"></path>
        <path d="M42.4 54.3h13.1v-8.2H43.2c-2.4 0-4.1.3-5.1 1-.9.7-1.4 1.8-1.4 3.4 0 1.4.4 2.4 1.1 2.9.8.6 2.3.9 4.6.9M28.5 22.7h21.4c5.4 0 9.4 1.2 12.2 3.7 2.7 2.5 4.1 6.2 4.1 11v24.8h-28c-3.9 0-6.9-1-9.1-3-2.1-2-3.2-4.8-3.2-8.4 0-4.5 1.2-7.7 3.6-9.7 2.4-2 6.5-2.9 12.1-2.9h13.7v-1c0-2.3-.7-4-2.1-4.9-1.4-.9-3.8-1.4-7.4-1.4H28.5v-8.2z" fill-rule="evenodd" clip-rule="evenodd" fill="#104766" data-color="1"></path>
        <path d="M61.2 30.8h9.9v13.4l-9.9-13.4zm-12.7 7.5h17.7v24l-17.7-24z" fill="#c75f30" fill-rule="evenodd" clip-rule="evenodd" data-color="2"></path>
        <path d="m173.4 71.6-1.2 1.1c-.4-.6-.9-.9-1.3-.9-.2 0-.4.1-.5.2-.1.1-.2.2-.2.4s0 .3.1.4c.1.2.5.5 1.2 1.1.6.5 1 .9 1.1 1 .3.3.6.7.7 1 .1.3.2.6.2 1 0 .7-.2 1.3-.7 1.8-.5.5-1.1.7-1.9.7-.6 0-1.2-.2-1.6-.5-.5-.3-.9-.8-1.2-1.4l1.4-.8c.4.8.9 1.2 1.4 1.2.3 0 .5-.1.7-.2.2-.2.3-.4.3-.6 0-.2-.1-.4-.2-.6-.1-.2-.5-.5-1-.9-.9-.8-1.6-1.4-1.8-1.8-.3-.4-.4-.8-.4-1.3 0-.6.2-1.1.7-1.5.5-.4 1-.6 1.7-.6.4 0 .8.1 1.2.3.5 0 .9.4 1.3.9z" fill="#104766" data-color="1"></path>
        <path d="M179.3 70.2c1.2 0 2.3.4 3.2 1.3.9.9 1.3 2 1.3 3.3 0 1.3-.4 2.3-1.3 3.2-.9.9-1.9 1.3-3.2 1.3-1.3 0-2.4-.5-3.2-1.4-.9-.9-1.3-2-1.3-3.2 0-.8.2-1.6.6-2.3.4-.7 1-1.2 1.7-1.7s1.4-.5 2.2-.5zm0 1.6c-.8 0-1.5.3-2 .8-.5.6-.8 1.3-.8 2.1 0 1 .3 1.7 1 2.3.5.4 1.2.7 1.8.7.8 0 1.5-.3 2-.9.6-.6.8-1.3.8-2.1s-.3-1.5-.8-2.1c-.6-.5-1.2-.8-2-.8z" fill="#104766" data-color="1"></path>
        <path d="M185.3 70.4h1.7v7.1h2.4v1.6h-4.1v-8.7z" fill="#104766" data-color="1"></path>
        <path d="M190.6 70.4h1.7V76c0 .5 0 .8.1 1 .1.2.2.4.4.5.2.1.4.2.7.2.3 0 .5-.1.8-.2.2-.1.4-.3.4-.5.1-.2.1-.6.1-1.2v-5.4h1.7v5.2c0 .9 0 1.5-.1 1.8-.1.3-.3.7-.6 1s-.6.5-1 .7c-.4.2-.8.2-1.3.2-.6 0-1.2-.1-1.6-.4-.5-.3-.8-.7-1-1.1-.2-.4-.3-1.2-.3-2.2v-5.2z" fill="#104766" data-color="1"></path>
        <path d="m206.4 72-1.2 1.1c-.8-.8-1.7-1.2-2.7-1.2-.8 0-1.5.3-2.1.9-.6.6-.9 1.3-.9 2.1 0 .6.1 1.1.4 1.5.3.4.6.8 1.1 1.1.5.3 1 .4 1.5.4s.9-.1 1.3-.3c.4-.2.8-.5 1.3-1l1.1 1.2c-.6.6-1.2 1.1-1.8 1.3-.6.2-1.2.4-2 .4-1.3 0-2.5-.4-3.3-1.3-.9-.9-1.3-2-1.3-3.3 0-.9.2-1.6.6-2.3.4-.7 1-1.2 1.7-1.6.7-.4 1.5-.6 2.4-.6.7 0 1.4.2 2.1.5.7.1 1.3.5 1.8 1.1zm-4.8 7h1l-.1.3c.3.1.5.2.6.3.2.2.2.4.2.6 0 .3-.1.6-.4.8-.3.2-.6.3-1.1.3-.4 0-.8-.1-1.3-.3l.2-.8c.3.1.6.1.8.1.2 0 .4 0 .4-.1.1-.1.1-.2.1-.3 0-.1 0-.2-.1-.2-.1-.1-.2-.1-.4-.1h-.3l.4-.6z" fill="#104766" data-color="1"></path>
        <path d="M211.9 70.2c1.2 0 2.3.4 3.2 1.3.9.9 1.3 2 1.3 3.3 0 1.3-.4 2.3-1.3 3.2-.9.9-1.9 1.3-3.2 1.3-1.3 0-2.4-.5-3.2-1.4-.9-.9-1.3-2-1.3-3.2 0-.8.2-1.6.6-2.3.4-.7 1-1.2 1.7-1.7.6-.3 1.4-.5 2.2-.5zm0 1.6c-.8 0-1.5.3-2 .8-.5.6-.8 1.3-.8 2.1 0 1 .3 1.7 1 2.3.5.4 1.2.7 1.8.7.8 0 1.5-.3 2-.9.6-.6.8-1.3.8-2.1s-.3-1.5-.8-2.1c-.5-.5-1.2-.8-2-.8zm-1.8-2.1-.6-1c.5-.4 1-.6 1.5-.6.2 0 .5.1 1 .2.3.1.6.1.8.1.3 0 .7-.1 1-.3l.6.9c-.5.4-1 .6-1.4.6-.2 0-.5-.1-.9-.2-.3-.1-.5-.1-.5-.1h-.4c-.4.1-.8.2-1.1.4z" fill="#104766" data-color="1"></path>
        <path d="M218 70.4h4.7V72h-3.1v1.6h3.1v1.6h-3.1v2.3h3.1v1.6H218v-8.7z" fill="#104766" data-color="1"></path>
        <path d="m228.8 71.6-1.2 1.1c-.4-.6-.9-.9-1.3-.9-.2 0-.4.1-.5.2-.1.1-.2.2-.2.4s0 .3.1.4c.1.2.5.5 1.2 1.1.6.5 1 .9 1.1 1 .3.3.6.7.7 1 .1.3.2.6.2 1 0 .7-.2 1.3-.7 1.8-.5.5-1.1.7-1.9.7-.6 0-1.2-.2-1.6-.5-.5-.3-.9-.8-1.2-1.4l1.4-.8c.4.8.9 1.2 1.4 1.2.3 0 .5-.1.7-.2.2-.2.3-.4.3-.6 0-.2-.1-.4-.2-.6-.1-.2-.5-.5-1-.9-.9-.8-1.6-1.4-1.8-1.8-.3-.4-.4-.8-.4-1.3 0-.6.2-1.1.7-1.5.5-.4 1-.6 1.7-.6.4 0 .8.1 1.2.3.4 0 .9.4 1.3.9z" fill="#104766" data-color="1"></path>
        <path d="m233.1 77.5.7-.4c.5 1 1.1 1.4 1.8 1.4.3 0 .6-.1.8-.2.3-.1.5-.3.6-.5.1-.2.2-.5.2-.7 0-.3-.1-.6-.3-.9-.3-.4-.8-.8-1.5-1.4-.7-.5-1.2-.9-1.4-1.2-.3-.4-.5-.9-.5-1.3s.1-.7.3-1c.2-.3.4-.6.8-.7.3-.2.7-.3 1.1-.3.4 0 .8.1 1.1.3.4.2.7.6 1.1 1.1l-.7.5c-.3-.4-.6-.7-.8-.9-.2-.1-.5-.2-.8-.2-.4 0-.6.1-.9.3-.2.2-.3.5-.3.8 0 .2 0 .4.1.5.1.2.2.4.4.6.1.1.5.4 1.1.9.8.6 1.3 1 1.5 1.5.3.4.4.9.4 1.3 0 .6-.2 1.2-.7 1.6-.5.5-1.1.7-1.7.7-.5 0-1-.1-1.4-.4-.3-.3-.6-.7-1-1.4z" fill="#104766" data-color="1"></path>
        <path d="M240 70.4h.9v6.4c0 .3.1.6.3.9.2.2.4.4.7.6.3.2.7.2 1 .2.3 0 .6-.1.8-.2.3-.1.5-.3.7-.5.2-.2.3-.5.4-.8.1-.2.1-.7.1-1.4v-5.2h.9v5.2c0 .8-.1 1.4-.2 1.9-.2.5-.5.9-.9 1.2s-1 .5-1.6.5c-.7 0-1.3-.2-1.8-.5s-.8-.8-1-1.3c-.1-.3-.2-.9-.2-1.8v-5.2z" fill="#104766" data-color="1"></path>
        <path d="m247 77.5.7-.4c.5 1 1.1 1.4 1.8 1.4.3 0 .6-.1.8-.2.3-.1.5-.3.6-.5.1-.2.2-.5.2-.7 0-.3-.1-.6-.3-.9-.3-.4-.8-.8-1.5-1.4-.7-.5-1.2-.9-1.4-1.2-.3-.4-.5-.9-.5-1.3s.1-.7.3-1c.2-.3.4-.6.8-.7.3-.2.7-.3 1.1-.3.4 0 .8.1 1.1.3.4.2.7.6 1.1 1.1l-.7.5c-.3-.4-.6-.7-.8-.9-.2-.1-.5-.2-.8-.2-.4 0-.6.1-.9.3-.2.2-.3.5-.3.8 0 .2 0 .4.1.5.1.2.2.4.4.6.1.1.5.4 1.1.9.8.6 1.3 1 1.5 1.5.3.4.4.9.4 1.3 0 .6-.2 1.2-.7 1.6-.5.5-1.1.7-1.7.7-.5 0-1-.1-1.4-.4-.2-.3-.6-.7-1-1.4z" fill="#104766" data-color="1"></path>
        <path d="M253.1 71.3v-.8h4.8v.8H256v7.8h-1v-7.8h-1.9z" fill="#104766" data-color="1"></path>
        <path d="M259.1 70.4h5v.8H260V74h4.1v.8H260v3.4h4.1v.8h-4.9v-8.6z" fill="#104766" data-color="1"></path>
        <path d="M265.6 79.1v-8.7h.2l5.8 6.7v-6.7h.9v8.7h-.2l-5.7-6.6v6.6h-1z" fill="#104766" data-color="1"></path>
        <path d="M273.7 71.3v-.8h4.8v.8h-1.9v7.8h-.9v-7.8h-2z" fill="#104766" data-color="1"></path>
        <path d="m283.2 70.4 4 8.7h-.9l-1.4-2.9h-3.7l-1.4 2.9h-1l4.1-8.7h.3zm-.1 1.9-1.5 3.1h3l-1.5-3.1zm.4-4.4h1.3l-1.7 1.8h-.8l1.2-1.8z" fill="#104766" data-color="1"></path>
        <path d="M287.9 70.4h.9l2.9 6.7 2.9-6.7h.9l-3.8 8.7h-.2l-3.6-8.7z" fill="#104766" data-color="1"></path>
        <path d="M297.1 70.4h5v.8H298V74h4.1v.8H298v3.4h4.1v.8h-4.9v-8.6z" fill="#104766" data-color="1"></path>
        <path d="M303.5 70.4h.9v8.7h-.9v-8.7z" fill="#104766" data-color="1"></path>
        <path d="m305.4 77.5.7-.4c.5 1 1.1 1.4 1.8 1.4.3 0 .6-.1.8-.2.3-.1.5-.3.6-.5.1-.2.2-.5.2-.7 0-.3-.1-.6-.3-.9-.3-.4-.8-.8-1.5-1.4-.7-.5-1.2-.9-1.4-1.2-.3-.4-.5-.9-.5-1.3s.1-.7.3-1c.2-.3.4-.6.8-.7.3-.2.7-.3 1.1-.3.4 0 .8.1 1.1.3.4.2.7.6 1.1 1.1l-.7.5c-.3-.4-.6-.7-.8-.9-.2-.1-.5-.2-.8-.2-.4 0-.6.1-.9.3-.2.2-.3.5-.3.8 0 .2 0 .4.1.5.1.2.2.4.4.6.1.1.5.4 1.1.9.8.6 1.3 1 1.5 1.5.3.4.4.9.4 1.3 0 .6-.2 1.2-.7 1.6-.5.5-1.1.7-1.7.7-.5 0-1-.1-1.4-.4-.2-.3-.6-.7-1-1.4z" fill="#104766" data-color="1"></path>
    </g>
</svg>